<svg width="19" height="17" fill="none" xmlns="http://www.w3.org/2000/svg"><path d="M4.8 9.45a.79.79 0 0 0-.48.47.87.87 0 0 0 1.43.95 1 1 0 0 0 .18-.29c.05-.1.07-.22.07-.33 0-.23-.1-.45-.25-.62a.88.88 0 0 0-.96-.19Zm11.49-3.5L15.1 2.41A2.62 2.62 0 0 0 12.62.67H6.38A2.63 2.63 0 0 0 3.9 2.42L2.71 5.97A2.63 2.63 0 0 0 .75 8.5V12a2.63 2.63 0 0 0 1.75 2.47v1.03a.88.88 0 0 0 1.75 0v-.88h10.5v.88a.88.88 0 0 0 1.75 0v-1.03A2.63 2.63 0 0 0 18.25 12V8.5a2.63 2.63 0 0 0-1.96-2.53v-.03ZM5.55 2.96a.88.88 0 0 1 .83-.6h6.24a.87.87 0 0 1 .87.6l.92 2.9H4.59l.96-2.9ZM16.5 12a.88.88 0 0 1-.88.88H3.38A.88.88 0 0 1 2.5 12V8.5a.87.87 0 0 1 .88-.88h12.25a.87.87 0 0 1 .87.88V12Zm-2.96-2.55a.79.79 0 0 0-.47.47.88.88 0 0 0 1.43.95.79.79 0 0 0 .18-.29c.05-.1.07-.22.07-.33 0-.23-.1-.45-.25-.62a.87.87 0 0 0-.96-.19Zm-3.16-.07H8.62a.88.88 0 0 0 0 1.74h1.76a.87.87 0 1 0 0-1.74Z" fill="#1A1930"/></svg>