<svg width="12" height="10" fill="none" xmlns="http://www.w3.org/2000/svg"><path d="M11.58 6.65 7.7 5l3.88-1.65a.7.7 0 0 0 .4-.38.48.48 0 0 0-.1-.47.86.86 0 0 0-.51-.3 1.12 1.12 0 0 0-.64.07L6.85 3.92V.62A.56.56 0 0 0 6.6.18 1.02 1.02 0 0 0 6 0c-.23 0-.44.07-.6.18a.56.56 0 0 0-.25.45v3.29L1.27 2.27c-.2-.08-.42-.1-.64-.06a.86.86 0 0 0-.52.29.48.48 0 0 0-.08.47c.06.16.2.3.4.38L4.3 5 .42 6.65a.7.7 0 0 0-.4.38.48.48 0 0 0 .1.47c.1.14.3.25.51.3.22.03.45.01.64-.07l3.88-1.65v3.3c0 .16.09.32.25.44.16.11.37.18.6.18.23 0 .44-.07.6-.18a.56.56 0 0 0 .25-.45V6.08l3.88 1.65c.2.08.42.1.64.06.22-.04.4-.15.52-.29a.48.48 0 0 0 .08-.47.7.7 0 0 0-.4-.38Z" fill="#2D2B5C"/></svg>