<svg width="15" height="23" fill="none" xmlns="http://www.w3.org/2000/svg"><path d="M14.61 8.83a1.04 1.04 0 0 0-.86-.45h-3.13V6.29h2.3a1.04 1.04 0 0 0 1.04-1.04V1.08A1.04 1.04 0 0 0 12.92.04H9.58a6.04 6.04 0 0 0-6.04 6.04v2.3h-2.3A1.04 1.04 0 0 0 .22 9.42v4.16a1.04 1.04 0 0 0 1.04 1.05h2.29v7.29a1.04 1.04 0 0 0 1.04 1.04h5a1.04 1.04 0 0 0 1.04-1.04v-7.3h1.46a1.04 1.04 0 0 0 .97-.65l1.67-4.17a1.04 1.04 0 0 0-.1-.97Zm-3.24 3.71H9.58a1.04 1.04 0 0 0-1.04 1.04v7.3H5.62v-7.3a1.04 1.04 0 0 0-1.04-1.04H2.3v-2.08h2.3a1.04 1.04 0 0 0 1.03-1.04V6.08a3.97 3.97 0 0 1 3.96-3.95h2.3V4.2h-.84a2.6 2.6 0 0 0-2 .54 1.81 1.81 0 0 0-.5 1.33v3.34a1.04 1.04 0 0 0 1.04 1.04h2.63l-.84 2.08Z" fill="#1A1930"/></svg>