<svg width="23" height="23" fill="none" xmlns="http://www.w3.org/2000/svg"><path d="M17.23 8.37c-.93 0-1.85.23-2.67.68a1.04 1.04 0 0 0-.98-.68H9.42a1.04 1.04 0 0 0-1.04 1.05v12.5a1.04 1.04 0 0 0 1.04 1.04h4.16a1.04 1.04 0 0 0 1.05-1.04v-5.73a1.04 1.04 0 1 1 2.08 0v5.73a1.04 1.04 0 0 0 1.04 1.04h4.17a1.04 1.04 0 0 0 1.04-1.04V14.1a5.74 5.74 0 0 0-5.73-5.73Zm3.65 12.5h-2.09V16.2a3.13 3.13 0 0 0-6.25 0v4.68h-2.08V10.46h2.08v.73a1.04 1.04 0 0 0 1.86.65 3.63 3.63 0 0 1 6.48 2.26v6.77ZM6.29 8.37H2.13a1.04 1.04 0 0 0-1.05 1.05v12.5a1.04 1.04 0 0 0 1.05 1.04h4.16a1.04 1.04 0 0 0 1.04-1.04V9.42A1.04 1.04 0 0 0 6.3 8.37Zm-1.04 12.5H3.17V10.46h2.08v10.41ZM4.22.61a3.37 3.37 0 1 0-.05 6.72h.03A3.37 3.37 0 1 0 4.22.61ZM4.2 5.25h-.03a1.27 1.27 0 0 1-1.43-1.28c0-.78.58-1.28 1.48-1.28a1.28 1.28 0 0 1 1.46 1.28c0 .78-.58 1.28-1.48 1.28Z" fill="#1A1930"/></svg>