<svg width="21" height="21" fill="none" xmlns="http://www.w3.org/2000/svg"><path d="M16.06 3.69a1.25 1.25 0 1 0 0 2.5 1.25 1.25 0 0 0 0-2.5Zm4.8 2.52a7.9 7.9 0 0 0-.49-2.53 5.15 5.15 0 0 0-1.2-1.85 4.9 4.9 0 0 0-1.85-1.2A7.6 7.6 0 0 0 14.8.16c-1.1-.07-1.46-.07-4.3-.07-2.82 0-3.18 0-4.28.07a7.6 7.6 0 0 0-2.53.49c-.7.25-1.33.66-1.85 1.2a4.9 4.9 0 0 0-1.2 1.84A7.6 7.6 0 0 0 .14 6.2C.08 7.3.08 7.67.08 10.5s0 3.19.06 4.3c.02.86.19 1.71.5 2.52.25.7.66 1.33 1.2 1.85.51.53 1.14.94 1.84 1.2.8.3 1.66.47 2.53.48 1.1.07 1.46.07 4.29.07s3.19 0 4.29-.07a7.6 7.6 0 0 0 2.53-.49 4.9 4.9 0 0 0 1.85-1.2c.53-.51.94-1.14 1.2-1.84.3-.8.46-1.66.48-2.53 0-1.1.07-1.46.07-4.29s0-3.19-.07-4.3Zm-1.88 8.46c-.01.66-.13 1.31-.36 1.93-.16.46-.43.87-.78 1.2-.34.35-.74.61-1.2.78-.62.23-1.27.35-1.93.36-1.04.05-1.43.06-4.17.06s-3.12 0-4.17-.06c-.68.01-1.37-.1-2.02-.32a3.4 3.4 0 0 1-1.14-.78 3.13 3.13 0 0 1-.77-1.2c-.26-.62-.4-1.3-.42-1.97 0-1.05-.06-1.43-.06-4.17s0-3.13.06-4.17c0-.67.13-1.34.36-1.98.19-.44.47-.83.83-1.14.31-.36.7-.64 1.14-.84.64-.22 1.3-.34 1.98-.35 1.04 0 1.43-.06 4.17-.06s3.12 0 4.17.06c.66 0 1.31.13 1.93.35.48.18.9.47 1.24.84.34.32.61.7.78 1.14.24.64.36 1.3.36 1.98.05 1.04.06 1.43.06 4.17s-.01 3.12-.06 4.17ZM10.5 5.16a5.34 5.34 0 1 0 .02 10.68 5.34 5.34 0 0 0-.02-10.68Zm0 8.8a3.47 3.47 0 1 1 0-6.93 3.47 3.47 0 0 1 0 6.94Z" fill="#1A1930"/></svg>