<svg width="19" height="19" fill="none" xmlns="http://www.w3.org/2000/svg"><path d="M17.66 7.36 16 6.8l.78-1.55a.88.88 0 0 0-.17-1l-1.86-1.86a.88.88 0 0 0-1-.17L12.18 3l-.55-1.66a.87.87 0 0 0-.83-.59H8.2a.88.88 0 0 0-.83.6L6.8 3l-1.55-.78a.88.88 0 0 0-1 .17L2.39 4.25a.88.88 0 0 0-.17 1L3 6.82l-1.66.56a.88.88 0 0 0-.59.82v2.62a.88.88 0 0 0 .6.83L3 12.2l-.78 1.56a.88.88 0 0 0 .17 1l1.86 1.86a.87.87 0 0 0 1 .17L6.82 16l.56 1.66a.88.88 0 0 0 .83.59h2.62a.87.87 0 0 0 .83-.6L12.2 16l1.56.78a.87.87 0 0 0 .99-.17l1.86-1.86a.87.87 0 0 0 .17-1L16 12.18l1.66-.55a.88.88 0 0 0 .59-.83V8.2a.87.87 0 0 0-.6-.83Zm-1.16 2.82-1.05.35A1.75 1.75 0 0 0 14.44 13l.5 1-.97.96-.97-.53a1.75 1.75 0 0 0-2.44 1.02l-.35 1.05H8.8l-.34-1.05A1.75 1.75 0 0 0 6 14.44l-1 .5-.96-.97.53-.97a1.75 1.75 0 0 0-1.02-2.47l-1.05-.35V8.82l1.05-.35A1.75 1.75 0 0 0 4.57 6l-.5-.97.96-.96.97.5a1.75 1.75 0 0 0 2.47-1.02l.35-1.05h1.36l.35 1.05A1.75 1.75 0 0 0 13 4.57l1-.5.96.96-.53.97a1.75 1.75 0 0 0 1.02 2.44l1.05.35v1.4ZM9.5 6a3.5 3.5 0 1 0 0 7 3.5 3.5 0 0 0 0-7Zm0 5.25a1.75 1.75 0 1 1 0-3.5 1.75 1.75 0 0 1 0 3.5Z" fill="#1A1930"/></svg>