<svg width="19" height="17" fill="none" xmlns="http://www.w3.org/2000/svg"><path d="M18.25 6.46a.87.87 0 0 0-.75-.59l-4.98-.72L10.29.62a.87.87 0 0 0-1.58 0L6.48 5.14l-4.98.73a.88.88 0 0 0-.7.6.88.88 0 0 0 .21.87l3.61 3.5-.87 4.97a.88.88 0 0 0 1.29.95l4.46-2.34 4.46 2.34a.87.87 0 0 0 1.27-.94l-.88-4.97 3.62-3.5a.87.87 0 0 0 .28-.89Zm-5.38 3.5a.87.87 0 0 0-.26.77l.63 3.68-3.29-1.75a.93.93 0 0 0-.82 0L5.84 14.4l.63-3.68a.88.88 0 0 0-.25-.77L3.59 7.34l3.69-.54a.87.87 0 0 0 .66-.48L9.5 3l1.64 3.34a.88.88 0 0 0 .67.48l3.68.53-2.62 2.62Z" fill="#1A1930"/></svg>