<svg width="15" height="21" fill="none" xmlns="http://www.w3.org/2000/svg"><path d="M13.62 18.38h-.88v-1.46a4.38 4.38 0 0 0-.87-2.63l-1.23-1.63c-.34-.46-.52-1-.52-1.58v-.88c0-.7.28-1.36.77-1.86l.57-.57a4.33 4.33 0 0 0 1.22-2.48l.01-.04v-.01c.03-.19.05-.37.05-.56V2.63h.88a.87.87 0 1 0 0-1.75H1.37a.87.87 0 1 0 0 1.75h.87v2.05c0 .19.03.37.06.56v.05c.13.94.56 1.8 1.22 2.48l.58.57c.49.5.77 1.17.77 1.86v.88c0 .57-.19 1.12-.53 1.58l-1.22 1.63a4.36 4.36 0 0 0-.62 1.16c-.17.47-.26.97-.26 1.47v1.46h-.87a.87.87 0 0 0 0 1.75h12.25a.87.87 0 1 0 0-1.75Zm-9.63-14V2.63h7v1.75H4Zm.77 2.15a2.6 2.6 0 0 1-.33-.4h6.12c-.1.14-.2.28-.33.4l-.57.58A4.34 4.34 0 0 0 8.4 9.63H6.58A4.34 4.34 0 0 0 5.34 7.1l-.58-.58Zm.98 7.18c.5-.68.8-1.49.87-2.33h1.77c.06.84.36 1.65.86 2.33l.88 1.17H4.87l.87-1.17ZM11 18.38H4v-1.46l.03-.3h6.95l.02.3v1.46Z" fill="#1A1930"/></svg>