<svg width="23" height="21" fill="none" xmlns="http://www.w3.org/2000/svg"><path d="M22.95 2.11a1.04 1.04 0 0 0-1.58-.89 7.8 7.8 0 0 1-1.95.83 5.45 5.45 0 0 0-8.96 3.98 11.5 11.5 0 0 1-7.09-4.1A1.05 1.05 0 0 0 2 1.73c-.14.09-.26.21-.34.36a5.5 5.5 0 0 0-.25 4.97 1.08 1.08 0 0 0-.52.92 5.4 5.4 0 0 0 1.66 3.9 1.04 1.04 0 0 0-.07.81 5.42 5.42 0 0 0 2.46 3.05 7.78 7.78 0 0 1-3.74.46 1.04 1.04 0 0 0-.69 1.91 13.48 13.48 0 0 0 7.3 2.15A13.32 13.32 0 0 0 20.8 10.5c.36-1.23.55-2.51.55-3.8v-.2a6.01 6.01 0 0 0 1.6-4.39ZM19.5 5.46c-.17.2-.26.47-.24.73l.01.51c0 1.09-.16 2.17-.47 3.2A11.13 11.13 0 0 1 7.8 18.18c-.9 0-1.79-.1-2.66-.32a9.88 9.88 0 0 0 3.07-1.62 1.04 1.04 0 0 0-.63-1.86 3.34 3.34 0 0 1-2.3-.98l.46-.1a1.04 1.04 0 0 0-.08-2.03 3.33 3.33 0 0 1-2.35-1.8c.2.03.38.04.57.05a1.06 1.06 0 0 0 1.03-.73A1.04 1.04 0 0 0 4.5 7.6a3.33 3.33 0 0 1-1.48-3 13.56 13.56 0 0 0 8.55 3.63 1.06 1.06 0 0 0 .85-.37 1.04 1.04 0 0 0 .22-.9 3.3 3.3 0 0 1 .9-3.14 3.36 3.36 0 0 1 4.81.08 1.03 1.03 0 0 0 .96.3c.43-.07.85-.19 1.26-.33a6.96 6.96 0 0 1-1.07 1.6Z" fill="#1A1930"/></svg>