<svg width="140" height="35" fill="none" xmlns="http://www.w3.org/2000/svg"><path d="M45.2 13.63c0-2.49-2.44-5.13-6.66-5.13-4.75 0-9.96 3.45-10.76 10.32-.81 6.94 3.55 10.03 7.95 10.03s6.7-1.7 9.06-3.96a4.04 4.04 0 0 0-5.14-1.1c-.56.27-1.27.65-2.72.65-1.7 0-3.43-.75-3.43-3.89 10.87-1.06 11.7-4.44 11.7-6.92Zm-5.38.4c-.07.78-.38 2.1-5.89 2.84 1.16-4.08 3.38-4.4 4.4-4.4.95 0 1.56.74 1.49 1.57Zm-18.43.68-2.53 7.86-1.78-13.66c-3.99 0-6.12 2.81-7.24 5.78l-3.09 7.9c-.01-.57-.43-7.82-.43-7.82-.24-3.63-3.6-5.84-6.32-5.84l3.3 19.76c4.17-.02 6.42-2.8 7.6-5.77l2.61-6.72c.02.27 1.8 12.5 1.8 12.5 4.2 0 6.44-2.63 7.66-5.5l5.87-14.27c-4.14 0-6.32 2.8-7.45 5.78Zm39.2-6.24c-2.58 0-4.56 1.39-6.22 3.43v-.02L55.86 0c-3.43 0-6.22 2.95-6.76 7.34l-2.6 21.2c1.98 0 4.08-.57 5.2-2a5.77 5.77 0 0 0 4.75 2.3c5.78 0 9.75-6.64 9.75-12.88-.04-5.7-2.83-7.5-5.61-7.5Zm-.54 10.2c-.6 3.47-2.56 5.84-4.45 5.84-1.9 0-2.72-.84-2.72-.84.36-3.05.59-4.92 1.28-6.53.7-1.61 2.34-4.18 4.05-4.18 1.68 0 2.45 2.2 1.84 5.7Zm20.6-9.74H76.6l.01-.2c.28-2.61.9-3.98 2.97-4.2 1.4-.14 2.02-.86 2.18-1.65l.5-2.76c-8.1-.05-10.65 3.41-11.3 8.69l-.03.12h-.08c-1.32 0-2.77 1.47-3.02 3.34l-.08.69h2.7L68.19 31.5l-.7 3.33.28.02c3.8-.14 6.22-3.1 6.76-7.4l1.77-14.5h1.26c1.25 0 2.7-1.23 2.96-3.28l.12-.74Zm20.99-.34c-4.66 0-9.06 3.4-10.41 8.72-1.36 5.33.69 11.64 7.55 11.64 6.84 0 10.79-6.57 10.79-12.03 0-5.44-3.73-8.33-7.93-8.33Zm1.88 9.9c-.24 2.42-1.31 6.09-4.26 6.09-2.96 0-2.54-4.29-2.25-6.33.31-2.17 1.54-5.28 4.2-5.28 2.37 0 2.59 2.8 2.31 5.52Zm29.07-3.78-2.53 7.86-1.79-13.66c-3.98 0-6.11 2.81-7.24 5.78l-3.08 7.9c-.02-.57-.43-7.82-.43-7.82-.24-3.63-3.6-5.84-6.32-5.84l3.27 19.76c4.17-.02 6.43-2.8 7.6-5.77 0 0 2.52-6.43 2.6-6.72l1.8 12.5c4.2 0 6.45-2.63 7.66-5.5L140 8.94c-4.12 0-6.3 2.8-7.41 5.78ZM84.45.12l-3.4 27.1-.68 3.34.27.02c3.66-.05 6.26-3.22 6.74-7.22l1.96-15.54c.59-4.75-2.27-7.7-4.89-7.7Z" fill="#1A1930"/></svg>